HIERARCHY
ROOT Hips
{
 OFFSET 0.000000 0.000000 0.000000
 CHANNELS 6 Xposition Yposition Zposition Yrotation Xrotation Zrotation
 JOINT Chest
 {
  OFFSET 0.000000 9.585900 0.002600
  CHANNELS 3 Yrotation Xrotation Zrotation
  JOINT Chest2
  {
   OFFSET 0.000000 9.601200 -0.005300
   CHANNELS 3 Yrotation Xrotation Zrotation
   JOINT Chest3
   {
    OFFSET 0.000000 9.561800 0.000000
    CHANNELS 3 Yrotation Xrotation Zrotation
    JOINT Chest4
    {
     OFFSET 0.000000 9.552100 0.000000
     CHANNELS 3 Yrotation Xrotation Zrotation
     JOINT Neck
     {
      OFFSET 0.000000 14.453000 0.000000
      CHANNELS 3 Yrotation Xrotation Zrotation
      JOINT Head
      {
       OFFSET 0.000000 8.936500 -0.011300
       CHANNELS 3 Yrotation Xrotation Zrotation
       End Site
       {
        OFFSET 0.000000 17.073600 -0.006000
       }
      }
     }
     JOINT RightCollar
     {
      OFFSET -2.921100 9.558500 0.000000
      CHANNELS 3 Yrotation Xrotation Zrotation
      JOINT RightShoulder
      {
       OFFSET -13.519700 0.000000 0.000000
       CHANNELS 3 Yrotation Xrotation Zrotation
       JOINT RightElbow
       {
        OFFSET 0.000000 -29.696600 0.000000
        CHANNELS 3 Yrotation Xrotation Zrotation
        JOINT RightWrist
        {
         OFFSET 0.000000 -24.004700 0.000000
         CHANNELS 3 Yrotation Xrotation Zrotation
         End Site
         {
          OFFSET 0.000000 -17.728500 0.000000
         }
        }
       }
      }
     }
     JOINT LeftCollar
     {
      OFFSET 2.921100 9.558500 0.000000
      CHANNELS 3 Yrotation Xrotation Zrotation
      JOINT LeftShoulder
      {
       OFFSET 13.519700 0.000000 0.000000
       CHANNELS 3 Yrotation Xrotation Zrotation
       JOINT LeftElbow
       {
        OFFSET 0.000000 -29.696600 0.000000
        CHANNELS 3 Yrotation Xrotation Zrotation
        JOINT LeftWrist
        {
         OFFSET 0.000000 -24.004700 0.000000
         CHANNELS 3 Yrotation Xrotation Zrotation
         End Site
         {
          OFFSET 0.000000 -17.728500 0.000000
         }
        }
       }
      }
     }
    }
   }
  }
 }
 JOINT RightHip
 {
  OFFSET -7.771700 -0.012900 -0.001300
  CHANNELS 3 Yrotation Xrotation Zrotation
  JOINT RightKnee
  {
   OFFSET 0.000000 -40.869800 0.001200
   CHANNELS 3 Yrotation Xrotation Zrotation
   JOINT RightAnkle
   {
    OFFSET 0.000000 -39.717900 0.002100
    CHANNELS 3 Yrotation Xrotation Zrotation
    JOINT RightToe
    {
     OFFSET 0.000000 -4.965400 11.033500
     CHANNELS 3 Yrotation Xrotation Zrotation
     End Site
     {
      OFFSET 0.000000 -1.423100 5.872300
     }
    }
   }
  }
 }
 JOINT LeftHip
 {
  OFFSET 7.771700 -0.012900 -0.001300
  CHANNELS 3 Yrotation Xrotation Zrotation
  JOINT LeftKnee
  {
   OFFSET 0.000000 -40.869800 0.001200
   CHANNELS 3 Yrotation Xrotation Zrotation
   JOINT LeftAnkle
   {
    OFFSET 0.000000 -39.717900 0.002100
    CHANNELS 3 Yrotation Xrotation Zrotation
    JOINT LeftToe
    {
     OFFSET 0.000000 -4.965400 11.033500
     CHANNELS 3 Yrotation Xrotation Zrotation
     End Site
     {
      OFFSET 0.000000 -1.423100 5.872300
     }
    }
   }
  }
 }
}
MOTION
Frames: 15
Frame Time: 0.008333
8.621749 52.515140 39.588908 171.806453 -36.662956 -1.700359 3.528279 21.246796 1.846340 0.431646 2.897789 0.337627 0.697665 4.722217 0.574645 3.004635 18.132459 2.607792 1.545016 14.309857 -1.419697 3.327251 -9.241322 -3.218776 -3.879438 -4.738013 -4.124534 -1.342226 -0.765733 3.644675 -139.905583 -74.929467 158.995251 27.046779 16.173878 70.997029 -2.800495 -2.170799 0.227613 7.846662 -1.855992 1.550285 93.158809 -68.788536 -121.553028 -28.505419 19.567608 -73.365134 -4.101217 -44.778806 4.803641 131.570514 86.535836 135.707489 -2.473920 -9.893115 -2.509394 0.332494 -0.638096 0.138016 1.273995 -40.628881 6.600998 71.301500 83.077705 59.976179 -7.608033 -12.351139 10.182261 0.823675 1.699807 0.397662
8.630571 52.508065 39.593373 171.813601 -36.648928 -1.707635 3.517145 21.235527 1.850599 0.419021 2.900305 0.345247 0.702317 4.717955 0.570100 2.981057 18.131019 2.601233 1.533845 14.284600 -1.426983 3.331776 -9.251001 -3.230137 -3.826837 -4.832513 -4.225211 -1.363253 -0.720155 3.630281 -135.378510 -74.353085 154.802701 27.128273 16.044381 72.688734 -2.956936 -2.268537 0.276329 7.784771 -1.940739 1.748601 92.138519 -68.162643 -121.146922 -29.248198 19.547165 -75.673778 -4.116960 -44.787718 4.810684 131.633584 86.549110 135.775155 -2.455767 -9.891575 -2.513602 0.328470 -0.637424 0.134623 1.221770 -40.640346 6.624962 71.278936 83.062097 59.957152 -7.631872 -12.355338 10.132618 0.852302 1.711966 0.410677
8.636624 52.502094 39.597269 171.822060 -36.638532 -1.704278 3.498708 21.228775 1.841833 0.417586 2.899552 0.344873 0.689123 4.717653 0.572645 2.982194 18.129505 2.593744 1.503012 14.257124 -1.428019 3.344314 -9.261159 -3.243646 -3.803890 -4.885107 -4.297219 -1.362856 -0.688092 3.640674 -131.311533 -73.717361 151.123239 27.053117 15.912010 73.906526 -3.075369 -2.320942 0.316450 7.662232 -2.050266 1.979533 91.163207 -67.516335 -120.786596 -29.697695 19.447371 -77.377701 -4.135374 -44.792590 4.813230 131.696494 86.561123 135.825865 -2.446264 -9.898861 -2.500035 0.326755 -0.630780 0.121622 1.114006 -40.643003 6.662650 71.318869 83.036489 59.957763 -7.639731 -12.354253 10.082266 0.869720 1.716625 0.416047
8.641722 52.496060 39.602448 171.820253 -36.620344 -1.696332 3.482168 21.217642 1.837320 0.395107 2.900310 0.347793 0.704179 4.712521 0.566167 2.981809 18.127920 2.585209 1.475577 14.227134 -1.429692 3.281667 -9.379026 -3.251916 -3.787195 -4.900927 -4.331670 -1.326793 -0.705252 3.508844 -127.285247 -72.942749 147.484714 26.832632 15.789238 74.689432 -3.165325 -2.353571 0.347738 7.519124 -2.161270 2.235476 90.184600 -66.801954 -120.430688 -29.887752 19.335573 -78.533601 -4.142927 -44.805739 4.816477 131.899864 86.582548 136.014288 -2.412074 -9.906451 -2.486299 0.307664 -0.623257 0.119726 1.015069 -40.654156 6.692875 71.354712 83.009848 59.960310 -7.635148 -12.357223 10.037367 0.884692 1.726344 0.414081
8.647997 52.491955 39.606361 171.813403 -36.615305 -1.698047 3.472712 21.218467 1.843212 0.387283 2.894463 0.343346 0.704919 4.713143 0.568161 2.917272 18.116000 2.576499 1.507901 14.209563 -1.448692 3.257167 -9.452437 -3.263413 -3.705683 -4.900904 -4.386569 -1.274115 -0.710452 3.367106 -123.584468 -72.082920 144.190732 26.491418 15.697164 75.089295 -3.185010 -2.372388 0.359662 7.389938 -2.257627 2.501204 89.204779 -65.991047 -120.082946 -29.879510 19.262982 -79.238525 -4.156728 -44.804395 4.836315 131.925334 86.598584 136.028549 -2.397815 -9.904396 -2.478842 0.301299 -0.621950 0.116423 0.931828 -40.653727 6.724675 71.371151 82.987857 59.963946 -7.625425 -12.362551 9.990933 0.900099 1.737718 0.412016
8.652853 52.488319 39.610279 171.802858 -36.610654 -1.696542 3.433981 21.216167 1.832753 0.405932 2.891725 0.342316 0.678352 4.706491 0.567904 2.919152 18.117315 2.571407 1.502870 14.181858 -1.461750 3.259360 -9.497076 -3.279180 -3.679109 -4.926198 -4.504141 -1.207467 -0.683199 3.332318 -120.266398 -71.194182 141.314241 26.051179 15.649716 75.169665 -3.186727 -2.380509 0.360916 7.233918 -2.358262 2.777940 88.198705 -65.078423 -119.719574 -29.710619 19.255196 -79.604643 -4.159514 -44.804723 4.847534 131.861383 86.607554 135.959165 -2.391305 -9.898452 -2.470579 0.298164 -0.622665 0.109528 0.854574 -40.652082 6.749294 71.394577 82.959948 59.979335 -7.621102 -12.369811 9.946730 0.917870 1.747570 0.405770
8.658268 52.485271 39.614165 171.795197 -36.608349 -1.707918 3.426330 21.213650 1.843413 0.403649 2.890510 0.342189 0.690802 4.706424 0.567114 2.876375 18.111186 2.572205 1.501711 14.156731 -1.471338 3.267184 -9.541762 -3.302403 -3.634753 -4.922308 -4.536246 -1.164604 -0.682609 3.215744 -117.279626 -70.278540 138.780679 25.535505 15.647191 74.998183 -3.184002 -2.389653 0.360037 7.099837 -2.443032 3.038490 87.137963 -64.064802 -119.303743 -29.414145 19.320578 -79.731536 -4.155722 -44.801693 4.860873 131.700651 86.614841 135.807033 -2.390604 -9.889981 -2.460598 0.292852 -0.627648 0.104880 0.806946 -40.652650 6.772435 71.374554 82.941683 59.981297 -7.639464 -12.372333 9.890899 0.949162 1.749960 0.423040
8.662846 52.483005 39.617199 171.788801 -36.611958 -1.722682 3.410744 21.213918 1.853409 0.422874 2.893172 0.342179 0.665136 4.703098 0.567955 2.869392 18.109149 2.570126 1.450789 14.095162 -1.470303 3.321925 -9.550117 -3.340740 -3.623664 -4.932144 -4.596964 -1.116840 -0.668970 3.142294 -114.653727 -69.353928 136.602728 24.968921 15.677510 74.639709 -3.291040 -2.459916 0.391185 7.090174 -2.451129 3.257740 86.027988 -62.965969 -118.833515 -29.022707 19.435953 -79.689065 -4.160729 -44.792667 4.881376 131.560929 86.621260 135.671281 -2.390969 -9.877467 -2.455581 0.291107 -0.637709 0.106280 0.757185 -40.647872 6.795793 71.375205 82.921792 60.005425 -7.653739 -12.374345 9.833954 0.984775 1.754916 0.439940
8.661745 52.480418 39.619656 171.769834 -36.612830 -1.704506 3.384466 21.209046 1.830718 0.430068 2.895107 0.343361 0.622378 4.690413 0.568230 2.884783 18.114852 2.564157 1.455958 14.074275 -1.480054 3.336360 -9.588278 -3.361936 -3.610232 -4.932436 -4.659532 -1.080525 -0.659669 3.080014 -112.382228 -68.434335 134.762102 24.382953 15.719208 74.170755 -3.334076 -2.505335 0.400808 7.066153 -2.470415 3.458176 84.887367 -61.813130 -118.333404 -28.562864 19.564466 -79.551046 -4.135993 -44.792089 4.867348 131.410772 86.621011 135.517943 -2.400146 -9.871881 -2.447952 0.298597 -0.646374 0.117210 0.649839 -40.638963 6.794298 71.582095 82.852165 60.181486 -7.584980 -12.386461 9.788819 0.928927 1.757883 0.412961
8.661709 52.477883 39.622065 171.743678 -36.613609 -1.697214 3.373073 21.201082 1.822640 0.431666 2.896976 0.347833 0.613891 4.684183 0.563583 2.856116 18.108656 2.562787 1.474975 14.060856 -1.492231 3.353820 -9.619750 -3.379538 -3.628743 -4.943509 -4.737611 -1.022714 -0.639132 3.050066 -110.419682 -67.532986 133.213031 23.805186 15.752422 73.662420 -3.336678 -2.527988 0.404116 7.055885 -2.503756 3.623066 83.731349 -60.635230 -117.823167 -28.067136 19.674826 -79.398429 -4.113807 -44.788967 4.866952 131.314052 86.630108 135.423485 -2.390468 -9.865045 -2.434735 0.297086 -0.649083 0.113897 0.571410 -40.633297 6.807411 71.730952 82.801984 60.324797 -7.566030 -12.395668 9.745198 0.925539 1.765778 0.394423
8.663506 52.476483 39.622810 171.712944 -36.625552 -1.705549 3.372163 21.202297 1.832365 0.391909 2.883572 0.342100 0.647496 4.693360 0.567593 2.841469 18.105448 2.561857 1.503826 14.063201 -1.502705 3.352383 -9.656769 -3.386413 -3.646497 -4.950640 -4.783414 -1.004460 -0.627354 3.011716 -108.735149 -66.662747 131.923988 23.250946 15.768184 73.167795 -3.347203 -2.552190 0.412405 7.077492 -2.537921 3.752391 82.592572 -59.437997 -117.331512 -27.572729 19.752019 -79.286625 -4.104748 -44.770440 4.890563 131.160114 86.638201 135.273357 -2.380902 -9.859707 -2.419308 0.294093 -0.649267 0.103120 0.500124 -40.619483 6.837055 71.874488 82.761677 60.478724 -7.548484 -12.404724 9.697561 0.928413 1.766811 0.386566
8.665740 52.475354 39.622575 171.680684 -36.640543 -1.723306 3.375633 21.205880 1.851356 0.399092 2.885001 0.344565 0.634202 4.687686 0.566159 2.840891 18.106971 2.562943 1.521582 14.061161 -1.509865 3.351615 -9.677224 -3.391146 -3.665847 -4.958300 -4.809643 -1.027122 -0.619632 2.979589 -107.294956 -65.830217 130.860733 22.736943 15.763089 72.731555 -3.365210 -2.579630 0.420376 7.125829 -2.574101 3.851257 81.503663 -58.212751 -116.890669 -27.108863 19.795729 -79.245375 -4.109599 -44.745626 4.929952 131.023917 86.652052 135.139014 -2.363952 -9.854641 -2.408087 0.290139 -0.648497 0.094248 0.423495 -40.604649 6.875667 72.038183 82.723424 60.659514 -7.522103 -12.416297 9.628217 0.934805 1.762653 0.406570
8.664058 52.474039 39.620913 171.661899 -36.655173 -1.732484 3.360496 21.210521 1.850674 0.425885 2.891787 0.351939 0.601990 4.676643 0.561438 2.869275 18.116843 2.566081 1.466024 14.026571 -1.496024 3.402403 -9.657931 -3.417924 -3.712488 -4.972701 -4.821481 -1.081911 -0.613023 2.965106 -106.046093 -65.033575 129.973454 22.280947 15.734523 72.377712 -3.403779 -2.611652 0.431507 7.193742 -2.615453 3.921658 80.476169 -56.959846 -116.511613 -26.686776 19.817785 -79.280788 -4.103760 -44.721824 4.932535 130.915765 86.659792 135.038193 -2.334143 -9.858931 -2.396424 0.279843 -0.645432 0.085821 0.352319 -40.591178 6.886523 72.192922 82.686447 60.834225 -7.507242 -12.420649 9.573185 0.947656 1.759709 0.406554
8.659868 52.471246 39.619703 171.641388 -36.656980 -1.732649 3.342456 21.204649 1.840366 0.424957 2.886966 0.352363 0.598201 4.677225 0.562903 2.860161 18.110385 2.567206 1.465321 14.027933 -1.494920 3.430539 -9.644764 -3.433937 -3.725603 -4.967293 -4.840454 -1.160408 -0.610359 2.967158 -104.947074 -64.263025 129.217510 21.893468 15.690986 72.113009 -3.391122 -2.616187 0.425576 7.243559 -2.629477 3.948446 79.580446 -55.718430 -116.243674 -26.300497 19.828984 -79.372892 -4.096985 -44.713803 4.937505 130.938888 86.672345 135.057243 -2.316282 -9.866652 -2.382165 0.276843 -0.639026 0.084473 0.291824 -40.589881 6.889234 72.365160 82.645329 61.001074 -7.464517 -12.419512 9.580626 0.909425 1.748799 0.363325
8.658607 52.470510 39.615130 171.592192 -36.681079 -1.734809 3.355291 21.220631 1.852372 0.384140 2.876936 0.344205 0.635034 4.683051 0.570938 2.796966 18.091079 2.572580 1.529337 14.055366 -1.520229 3.442037 -9.631631 -3.437124 -3.688732 -4.944933 -4.876329 -1.253707 -0.611941 2.980162 -103.964128 -63.508398 128.553956 21.576844 15.647827 71.935333 -3.301835 -2.591234 0.390504 7.311355 -2.709808 3.978385 78.645709 -54.444328 -115.940582 -25.932640 19.830554 -79.497285 -4.088331 -44.683403 4.969211 130.939676 86.681634 135.052237 -2.286022 -9.866449 -2.365992 0.254412 -0.643330 0.084977 0.239918 -40.568642 6.914477 72.539735 82.604502 61.172517 -7.377898 -12.387650 9.581555 0.827050 1.701792 0.317738
